<?xml version="1.0" standalone="no"?>
<!DOCTYPE svg PUBLIC "-//W3C//DTD SVG 20010904//EN"
 "http://www.w3.org/TR/2001/REC-SVG-20010904/DTD/svg10.dtd">
<svg version="1.0" xmlns="http://www.w3.org/2000/svg"
 width="512.000000pt" height="512.000000pt" viewBox="0 0 512.000000 512.000000"
 preserveAspectRatio="xMidYMid meet">
<metadata>
Created by potrace 1.11, written by Peter Selinger 2001-2013
</metadata>
<g transform="translate(0.000000,512.000000) scale(0.100000,-0.100000)"
fill="#000000" stroke="none">
<path d="M2035 5033 c-6 -28 -102 -331 -154 -493 -16 -47 -35 -107 -44 -135
-20 -67 -110 -350 -158 -500 -21 -66 -48 -151 -60 -190 -11 -38 -28 -90 -36
-115 -8 -25 -44 -137 -79 -250 -72 -228 -175 -552 -234 -735 -21 -66 -64 -201
-95 -300 -31 -99 -66 -209 -77 -245 -46 -143 -58 -181 -108 -340 -28 -91 -58
-183 -65 -205 -8 -22 -37 -114 -65 -205 -29 -91 -63 -198 -76 -239 -13 -40
-24 -80 -24 -87 0 -14 -69 -18 -252 -15 l-58 1 0 -465 0 -465 489 0 489 0 10
38 c5 20 49 159 96 307 101 312 131 407 215 675 34 107 72 224 84 260 l22 65
689 0 690 0 167 -510 c93 -280 192 -583 221 -672 l53 -163 493 0 492 0 0 465
0 466 -151 -2 c-83 0 -151 1 -152 3 -1 1 -116 347 -256 768 -139 421 -257 774
-262 785 -4 11 -99 292 -209 625 -111 333 -205 614 -209 625 -5 11 -103 302
-217 648 l-209 627 -476 0 -477 0 -7 -27z m774 -2338 c66 -198 117 -362 114
-365 -6 -7 -752 -7 -764 0 -5 4 2 39 15 81 41 128 156 489 191 599 100 316
157 497 162 510 3 8 41 -93 84 -225 44 -132 133 -402 198 -600z"/>
</g>
</svg>
